# xmcd
#
# Track frame offsets: 
#        150
#        18743
#        33447
#        60072
#        79598
#        99617
#        125504
#        149970
#        176370
#        202991
#        227341
#        243777
#        260366
#        277187
#        291192
#
# Disc length: 4038 seconds
#
# Revision: 2
# Processed by: cddbd v1.5.2PL0 Copyright (c) Steve Scherf et al.
# Submitted via: ExactAudioCopy v1.0b3
#
DISCID=cf0fc40f
DTITLE=FACES - THE DEFINITIVE ROCK COLLECTION (REMASTERED)
DYEAR=2007
DGENRE=Classic Rock
TTITLE0=Wicked Messenger
TTITLE1=Shake, Shudder
TTITLE2=Around The Plynth
TTITLE3=Flying
TTITLE4=Pineapple And The Monkey
TTITLE5=Three Button Hand Me Down
TTITLE6=Bad 'N' Ruin
TTITLE7=Sweet Lady Mary
TTITLE8=Had Me A Real Good Time
TTITLE9=(I Know) I'm Losing You - Rod Stewart and Faces
TTITLE10=Maybe I'm Amazed
TTITLE11=Miss Judy's Farm
TTITLE12=You're So Rude
TTITLE13=Love Lives Here
TTITLE14=Last Orders Please
EXTD=
EXTT0=
EXTT1=
EXTT2=
EXTT3=
EXTT4=
EXTT5=
EXTT6=
EXTT7=
EXTT8=
EXTT9=
EXTT10=
EXTT11=
EXTT12=
EXTT13=
EXTT14=
PLAYORDER=
